<svg xmlns="http://www.w3.org/2000/svg" viewBox="0 0 128 128" role="img" aria-label="CSS3 logo">
  <path fill="#1572B6" d="M19 3l9.7 108.8L64 125l35.3-13.2L109 3z"/>
  <path fill="#33A9DC" d="M64 116.4l28.5-10.6L100.8 12H64z"/>
  <path fill="#EBEBEB" d="M64 52.2H49.7l-1-11.5H64V29.5H36.3l.3 3.2 2.7 30.8H64zm0 29.2l-.1.1-12-3.2-.8-9H40.3l1.5 16.8 22.1 6.2.1-.1z"/>
  <path fill="#fff" d="M63.9 52.2v11.2h12.5l-1.2 14.1-11.3 3.2v11.7l21.4-6.1.2-1.8 2.6-29.7.3-3.2zm0-22.7v11.2h25.8l.2-2.6.5-5.4.3-3.2z"/>
</svg>
