<svg xmlns="http://www.w3.org/2000/svg" viewBox="0 0 128 128" role="img" aria-label="Express logo">
  <path fill="#fff" d="M27 96.8c-3.3 0-6-2.5-6-5.7 0-1.2.4-2.4 1.1-3.4l24.8-34.8-23-32.2A5.8 5.8 0 0 1 22.8 17c0-3.2 2.7-5.7 6-5.7 2 0 3.9 1 5 2.7L56 45.5 78.4 14c1.1-1.7 3-2.7 5-2.7 3.3 0 6 2.5 6 5.7 0 1.2-.4 2.4-1.1 3.4l-23 32.2 24.8 34.8c.7 1 1.1 2.2 1.1 3.4 0 3.2-2.7 5.7-6 5.7-2 0-3.9-1-5-2.7L56 60.7 32 94.1c-1.1 1.7-3 2.7-5 2.7z"/>
  <path fill="#111" d="M27 92.8c-1.1 0-2-.7-2-1.7 0-.3.1-.7.4-1.1l25.6-35.9-24.1-33.8c-.2-.4-.4-.8-.4-1.1 0-1 .9-1.7 2-1.7.7 0 1.3.3 1.7.8L56 50.4l25.8-32.1c.4-.5 1-.8 1.7-.8 1.1 0 2 .7 2 1.7 0 .3-.1.7-.4 1.1L60.9 54.1 86.5 90c.2.4.4.8.4 1.1 0 1-.9 1.7-2 1.7-.7 0-1.3-.3-1.7-.8L56 57.8 28.7 92c-.4.5-1 .8-1.7.8z"/>
</svg>
