<svg xmlns="http://www.w3.org/2000/svg" viewBox="0 0 128 128" role="img" aria-label="Git logo">
  <path fill="#F34F29" d="M124.8 58.5L69.5 3.2c-4.3-4.3-11.2-4.3-15.5 0L42.5 14.7l14.6 14.6c3.4-1.1 7.3-.3 10 2.4 2.7 2.7 3.5 6.7 2.3 10.2l14 14c3.5-1.2 7.5-.4 10.2 2.3 3.8 3.8 3.8 10 0 13.8-3.8 3.8-10 3.8-13.8 0-2.8-2.8-3.5-6.9-2.1-10.5L64.6 47.9v34.8c1 .5 2 .9 2.8 1.8 3.8 3.8 3.8 10 0 13.8s-10 3.8-13.8 0-3.8-10 0-13.8c.9-.9 2-1.5 3.1-2V47.3c-1.1-.4-2.2-1-3-1.9-2.9-2.9-3.6-7.3-2-10.9L37.3 20.1 3.2 54.2c-4.3 4.3-4.3 11.2 0 15.5l55.3 55.3c4.3 4.3 11.2 4.3 15.5 0l50.8-50.8c4.3-4.4 4.3-11.3 0-15.7z"/>
</svg>
