<svg xmlns="http://www.w3.org/2000/svg" viewBox="0 0 128 128" role="img" aria-label="GitHub logo">
  <path fill="#3E75C3" d="M64 4C30.9 4 4 30.9 4 64c0 26.5 17.2 49 41 56.9 3 .5 4.1-1.3 4.1-2.9 0-1.4-.1-6.2-.1-11.3-16.7 3.6-20.2-7.1-20.2-7.1-2.7-7-6.7-8.9-6.7-8.9-5.5-3.7.4-3.7.4-3.7 6.1.4 9.3 6.3 9.3 6.3 5.4 9.3 14.2 6.6 17.6 5 .5-3.9 2.1-6.6 3.9-8.1-13.3-1.5-27.3-6.7-27.3-29.9 0-6.6 2.3-12 6.2-16.3-.6-1.5-2.7-7.7.6-16 0 0 5-.6 16.5 6.2 4.8-1.3 10-2 15.2-2s10.4.7 15.2 2c11.5-6.8 16.5-6.2 16.5-6.2 3.3 8.3 1.2 14.5.6 16 3.8 4.3 6.2 9.7 6.2 16.3 0 23.3-14 28.3-27.4 29.8 2.2 1.9 4.1 5.6 4.1 11.3 0 8.2-.1 14.7-.1 16.7 0 1.6 1.1 3.4 4.1 2.9C106.8 113 124 90.5 124 64c0-33.1-26.9-60-60-60z"/>
</svg>
