<svg xmlns="http://www.w3.org/2000/svg" viewBox="0 0 128 128" role="img" aria-label="JavaScript logo">
  <path fill="#F7DF1E" d="M1.4 1.4h125.2v125.2H1.4z"/>
  <path d="M84.8 99.2c2.5 4.1 5.8 7 11.7 7 4.9 0 8.1-2.4 8.1-5.8 0-4-3.2-5.4-8.6-7.8l-3-1.3c-8.6-3.7-14.3-8.3-14.3-18.1 0-9 6.9-15.8 17.6-15.8 7.7 0 13.2 2.7 17.2 9.7l-9.4 6c-2.1-3.7-4.3-5.1-7.8-5.1-3.5 0-5.8 2.3-5.8 5.1 0 3.6 2.3 5 7.5 7.2l3 1.3c10.1 4.3 15.8 8.7 15.8 18.6 0 10.6-8.3 16.4-19.5 16.4-11 0-18.1-5.2-21.6-12zm-41.8 1c1.9 3.3 3.7 6.1 7.9 6.1 4 0 6.6-1.6 6.6-7.7V56.9H69v41.9c0 12.7-7.4 18.4-18.2 18.4-9.7 0-15.3-5-18.2-11.1z"/>
</svg>
