<svg xmlns="http://www.w3.org/2000/svg" viewBox="0 0 128 128" role="img" aria-label="MySQL logo">
  <path fill="#00758F" d="M101.7 89.2c-3.2-2.6-6.1-4.9-8.5-6.8-.7-.5-1.6-.5-2.3 0-1 .7-2.2 1.5-3.6 2.3 1.2.9 2.5 1.8 3.8 2.8 5.1 3.9 10.5 8.1 11 12.5.1.7 0 1.1-.3 1.3-.9.8-4.2.2-8.4-1.4-11.2-4.2-21.1-13.6-29.8-22-2.5-2.4-4.8-4.7-7-6.7-7.5-6.9-14.4-10.7-21.4-11.8-.5-.1-.9-.1-1.4-.2 3.4-2.2 6.8-5.1 10.1-8.7 5.8-6.2 9.2-12.4 9.2-12.5.4-.8.2-1.8-.6-2.3s-1.8-.3-2.4.4c0 .1-3.3 5.9-8.8 11.8-7.2 7.8-13.5 11.4-18.7 10.7-1.5-.2-3 .4-3.9 1.6-1 1.3-1.2 3-.5 4.5.7 1.5 2.2 2.6 3.8 2.7 6.6.5 13.2 4 20 10.4 2.1 1.9 4.4 4.2 6.8 6.6 9 8.7 19.2 18.6 31.3 23.1 4.2 1.6 7.5 2.3 10.1 2.3 2.5 0 4.4-.7 5.7-1.9 1.3-1.2 1.9-2.9 1.6-5.1-.8-6-6.9-10.7-12.8-15.2z"/>
  <path fill="#F29111" d="M49.6 32.4c-7 0-12.7 5.7-12.7 12.7S42.6 57.8 49.6 57.8s12.7-5.7 12.7-12.7-5.7-12.7-12.7-12.7zm0 21.8c-5 0-9.1-4.1-9.1-9.1s4.1-9.1 9.1-9.1 9.1 4.1 9.1 9.1-4 9.1-9.1 9.1z"/>
</svg>
