<svg xmlns="http://www.w3.org/2000/svg" viewBox="0 0 128 128" role="img" aria-label="Node.js logo">
  <path fill="#539E43" d="M64.2 1.3L12.5 31.2v65.6l51.7 29.9 51.3-29.9V31.2L64.2 1.3zm0 9.4l42.8 24.7v49.2L64.2 109 21 84.6V35.4l43.2-24.7z"/>
  <path fill="#539E43" d="M71.8 87.1c-1.8.9-4 .9-5.8 0l-8.2-4.8c-1.2-.7-.6-.9-.2-1 .9-.3 1.1-.4 2-.9.1-.1.4 0 .5.1l6.3 3.7c.5.3 1.2.3 1.7 0l24.6-14.2c.5-.3.9-.9.9-1.5V40.1c0-.6-.3-1.2-.9-1.5L68 24.3c-.5-.3-1.1-.3-1.6 0L41.8 38.6c-.5.3-.9.9-.9 1.5v28.4c0 .6.3 1.2.9 1.5l6.7 3.9c3.7 1.8 6-.3 6-2.5V43.4c0-.4.3-.7.7-.7h3.1c.4 0 .7.3.7.7v28.1c0 4.9-2.7 7.7-7.3 7.7-1.4 0-2.5 0-5.6-1.5L39.5 74c-1.8-1-2.9-2.9-2.9-5V40.1c0-2.1 1.1-4 2.9-5L64.1 20.9c1.7-1 4-1 5.7 0l24.6 14.2c1.8 1 2.9 2.9 2.9 5V69c0 2.1-1.1 4-2.9 5L71.8 87.1z"/>
</svg>
