<svg xmlns="http://www.w3.org/2000/svg" viewBox="0 0 128 128" role="img" aria-label="PHP logo">
  <ellipse cx="64" cy="64" rx="58" ry="34" fill="#777BB3"/>
  <path fill="#fff" d="M29.9 49.1h12.9c7.1 0 11.2 3.8 10 10.3-1.2 6.7-6.8 10.8-14.1 10.8h-5.1l-2.2 11.5H23zm9 15.1c3.3 0 5.2-1.6 5.7-4.6.5-2.9-.8-4.4-4.1-4.4h-3.7l-1.7 9zM59.2 49.1h8.4l-2.4 12.5h11.5l2.4-12.5h8.4l-6.2 32.6h-8.4l2.6-13.4H63.9l-2.6 13.4h-8.4zm35.4 0h12.8c7.1 0 11.2 3.8 10 10.3-1.2 6.7-6.8 10.8-14.1 10.8h-5.1L96 81.7h-8.4zm9 15.1c3.3 0 5.2-1.6 5.7-4.6.5-2.9-.8-4.4-4.1-4.4h-3.7l-1.7 9z"/>
</svg>
