<svg xmlns="http://www.w3.org/2000/svg" viewBox="0 0 128 128" role="img" aria-label="Python logo">
  <path fill="#3776AB" d="M63.8 4.2c-11.8 0-22 .9-29.3 3-10.7 3.1-12.7 9.5-12.7 20.9v15.3h25.5v5.1H11.9C.4 48.5.1 59 .1 69.3c0 10.6 3.5 18.8 11.8 22.4 6.9 3 15 4.4 23.9 4.4h15.4V76.4c0-10.2 8.8-19.2 19.2-19.2h31.9c8.9 0 16-7.3 16-16.1V28.2c0-8.9-7.5-15.6-16-17-8.1-1.4-16.5-2-25.1-2zm-13.8 9.8c2.4 0 4.4 2 4.4 4.4 0 2.4-2 4.4-4.4 4.4-2.4 0-4.4-2-4.4-4.4 0-2.4 2-4.4 4.4-4.4z"/>
  <path fill="#FFD43B" d="M64.2 123.8c11.8 0 22-.9 29.3-3 10.7-3.1 12.7-9.5 12.7-20.9V84.6h-25.5v-5.1h38.2c11.5 0 11.8-10.5 11.8-20.8 0-10.6-4.6-18.9-11.8-22.4-7.3-3.6-15.5-5.1-23.9-5.1H79.6v19.7c0 10.2-8.8 19.2-19.2 19.2H28.5c-8.9 0-16 7.3-16 16.1v13c0 8.9 7.7 14.1 16 16.5 8.9 2.6 18.4 3.1 35.7 3.1zm15.8-9.8c-2.4 0-4.4-2-4.4-4.4 0-2.4 2-4.4 4.4-4.4 2.4 0 4.4 2 4.4 4.4 0 2.4-2 4.4-4.4 4.4z"/>
</svg>
