<svg xmlns="http://www.w3.org/2000/svg" viewBox="0 0 128 128" role="img" aria-label="Tailwind CSS logo">
  <path fill="#38BDF8" d="M64 33.3c-17 0-27.7 8.5-32 25.6 6.4-8.5 13.9-11.7 22.4-9.6 4.9 1.2 8.4 4.8 12.3 8.8 6.3 6.4 13.6 13.9 29.3 13.9 17 0 27.7-8.5 32-25.6-6.4 8.5-13.9 11.7-22.4 9.6-4.9-1.2-8.4-4.8-12.3-8.8-6.3-6.4-13.6-13.9-29.3-13.9zM32 71.7C15 71.7 4.3 80.2 0 97.3c6.4-8.5 13.9-11.7 22.4-9.6 4.9 1.2 8.4 4.8 12.3 8.8 6.3 6.4 13.6 13.9 29.3 13.9 17 0 27.7-8.5 32-25.6-6.4 8.5-13.9 11.7-22.4 9.6-4.9-1.2-8.4-4.8-12.3-8.8-6.3-6.4-13.6-13.9-29.3-13.9z"/>
</svg>
