<svg xmlns="http://www.w3.org/2000/svg" viewBox="0 0 24 24" role="img" aria-label="Threads icon">
  <path fill="currentColor" d="M16.3 11.2c-.1-2.6-1.5-4-4-4-1.6 0-2.8.7-3.6 1.9l1.7 1.1c.4-.7 1.1-1 1.9-1 1.1 0 1.7.5 1.9 1.6-2.9.1-5.7 1.1-5.7 4 0 2.4 1.8 4 4.6 4 2.6 0 4.5-1.4 4.5-4.3 0-1.5-.5-2.5-1.3-3.3m-3.3 5.7c-1.4 0-2.4-.7-2.4-1.9 0-1.5 1.5-2 3.9-2.1.4.4.6 1 .6 1.8 0 1.3-.8 2.2-2.1 2.2M12.2 2C6.6 2 2 6.5 2 12.1S6.6 22 12.2 22c5.6 0 10.2-4.4 10.2-9.9 0-5.7-4.4-10.1-10.2-10.1m0 18c-4.5 0-8.1-3.5-8.1-7.9 0-4.5 3.6-8.1 8.1-8.1 4.5 0 8.1 3.6 8.1 8.1 0 4.4-3.6 7.9-8.1 7.9"/>
</svg>
