<svg xmlns="http://www.w3.org/2000/svg" viewBox="0 0 128 128" role="img" aria-label="WordPress logo">
  <circle cx="64" cy="64" r="60" fill="#21759B"/>
  <path fill="#fff" d="M16.8 64c0 18.6 10.8 34.7 26.5 42.4L20.8 44.8A47 47 0 0 0 16.8 64zm79.4-2.4c0-5.8-2.1-9.8-3.8-12.9-2.3-3.8-4.4-7.1-4.4-10.9 0-4.3 3.3-8.2 7.9-8.2h.6A47.1 47.1 0 0 0 25.3 38c1.1 0 2.1.1 3.1.2 5 .3 9.5.3 9.5.3 2.6-.1 2.9 3.7.3 4l-4.9.6 15.6 46.4 9.4-28-6.7-18.4c-2.4-.2-4.6-.6-4.6-.6-2.6-.1-2.3-4.1.3-4 0 0 4.7.4 9.4.4 5 0 13.3-.4 13.3-.4 2.6-.1 2.9 3.7.3 4l-4.9.6 15.4 46.1 4.3-14.4c1.8-5.8 3.2-10 3.2-13.7zm-31.4 6.6L52 105.7c3.9 1.2 7.9 1.9 12 1.9 4.9 0 9.7-.9 14.1-2.4-.1-.2-.2-.3-.2-.5zm37.1-25.7c.2 1.7.3 3.5.3 5.5 0 5.4-1 11.5-4 19.1l-12.7 36.7C97.7 95.2 111.2 80.8 111.2 64c0-7.9-3-15.1-7.3-21.5z"/>
</svg>
